<svg width="25" height="25" viewBox="0 0 25 25" fill="none" xmlns="http://www.w3.org/2000/svg">
<path d="M21.844 10.844L13.494 10.844C12.674 8.51399 10.454 6.84399 7.84398 6.84399C4.53398 6.84399 1.84398 9.53399 1.84398 12.844C1.84398 16.154 4.53398 18.844 7.84398 18.844C10.454 18.844 12.674 17.174 13.494 14.844H13.844L15.844 16.844L17.844 14.844L19.844 16.844L23.844 12.804L21.844 10.844ZM7.84398 15.844C6.19398 15.844 4.84398 14.494 4.84398 12.844C4.84398 11.194 6.19398 9.84399 7.84398 9.84399C9.49398 9.84399 10.844 11.194 10.844 12.844C10.844 14.494 9.49398 15.844 7.84398 15.844Z" fill="#E3E3E3"/>
</svg>
